<svg data-v-423bf9ae="" xmlns="http://www.w3.org/2000/svg" viewBox="0 0 371 91" class="iconLeft"><!----><!----><!----><g data-v-423bf9ae="" id="a32e5f31-e1e4-4e93-92d0-9987e3c3b2c9" fill="white" transform="matrix(5.612721889848748,0,0,5.612721889848748,105.71816432418461,14.158100653567299)"><path d="M4.66 5.97L3.18 6.03L3.18 9.54L4.03 9.71Q4.54 9.77 4.96 9.77L4.96 9.77Q6.03 9.77 6.70 9.22Q7.38 8.66 7.38 7.74L7.38 7.74Q7.38 6.83 6.67 6.40Q5.96 5.97 4.66 5.97L4.66 5.97ZM5.22 10.72L2.31 10.64L0.46 10.68L0.46 10.20L1.32 10.04L1.43 8.20L1.43 3.82L1.32 1.98L0.46 1.83L0.46 1.35L2.31 1.38L5.25 1.31Q6.71 1.31 7.52 1.82Q8.33 2.32 8.33 3.35L8.33 3.35Q8.33 4.00 7.90 4.56Q7.47 5.12 6.26 5.30L6.26 5.30Q7.82 5.30 8.56 5.90Q9.31 6.49 9.31 7.49L9.31 7.49Q9.31 9.01 8.19 9.87Q7.07 10.72 5.22 10.72L5.22 10.72ZM3.18 2.31L3.18 5.09L4.21 5.11Q5.22 5.11 5.81 4.72Q6.41 4.33 6.41 3.55L6.41 3.55Q6.41 2.87 5.94 2.51Q5.47 2.16 4.61 2.16L4.61 2.16Q4.46 2.16 4.27 2.17Q4.09 2.18 3.90 2.21Q3.72 2.24 3.56 2.25Q3.40 2.26 3.18 2.31L3.18 2.31ZM10.00 1.22L9.11 1.05L9.11 0.56L11.28 0.20L11.90 0.20L11.80 1.25L11.77 2.12L11.77 7.94Q11.77 8.35 11.78 8.72Q11.80 9.08 11.84 9.53Q11.89 9.98 11.91 10.04L11.91 10.04L12.67 10.20L12.67 10.68L10.95 10.64L9.23 10.68L9.23 10.20L9.97 10.04Q10.00 10.02 10.03 9.84Q10.06 9.66 10.06 9.39L10.06 9.39Q10.08 9.09 10.10 8.70Q10.13 8.32 10.13 7.94L10.13 7.94L10.13 3.42Q10.13 3.13 10.11 2.78Q10.09 2.42 10.08 1.99L10.08 1.99Q10.08 1.73 10.06 1.53Q10.03 1.32 10.00 1.22L10.00 1.22ZM20.22 7.03L20.22 7.03Q20.22 8.75 19.15 9.79Q18.07 10.84 16.30 10.84L16.30 10.84Q14.55 10.84 13.48 9.79Q12.40 8.75 12.40 7.03L12.40 7.03Q12.40 5.33 13.48 4.27Q14.56 3.22 16.30 3.22L16.30 3.22Q18.07 3.22 19.15 4.27Q20.22 5.31 20.22 7.03ZM18.48 7.03L18.48 7.03Q18.48 5.71 17.89 4.90Q17.30 4.09 16.30 4.09L16.30 4.09Q15.31 4.09 14.73 4.89Q14.14 5.70 14.14 7.03L14.14 7.03Q14.14 8.33 14.73 9.15Q15.32 9.97 16.30 9.97L16.30 9.97Q17.28 9.97 17.88 9.17Q18.48 8.36 18.48 7.03ZM27.19 8.72L27.19 8.72L27.71 9.31Q27.27 9.85 26.46 10.38L26.46 10.38Q25.66 10.84 24.59 10.84L24.59 10.84Q22.91 10.84 21.88 9.90Q20.84 8.95 20.84 7.34L20.84 7.34Q20.84 5.58 22.11 4.40Q23.38 3.22 25.28 3.22L25.28 3.22Q26.03 3.22 26.64 3.38L26.64 3.38Q27.17 3.50 27.43 3.62L27.43 3.62Q27.38 3.74 27.28 4.02Q27.18 4.29 27.12 4.49L27.12 4.49L26.89 5.35L26.39 5.28L26.39 4.58Q26.37 4.54 26.22 4.46Q26.07 4.38 25.88 4.30L25.88 4.30Q25.41 4.09 24.90 4.09L24.90 4.09Q23.84 4.09 23.22 4.81Q22.59 5.53 22.59 6.73L22.59 6.73Q22.59 8.03 23.28 8.84Q23.97 9.65 25.12 9.65L25.12 9.65Q26.01 9.65 26.50 9.28L26.50 9.28Q26.64 9.17 26.92 8.95L26.92 8.95Q27.05 8.84 27.19 8.72ZM28.64 1.22L27.76 1.05L27.76 0.56L29.92 0.20L30.54 0.20L30.43 1.25L30.41 2.12L30.41 6.23L32.92 4.00L32.40 3.87L32.40 3.40L35.18 3.40L35.18 3.87L34.43 4.04L31.71 6.21Q32.02 6.53 32.61 7.17L32.61 7.17Q32.91 7.49 33.50 8.15L33.50 8.15Q33.77 8.44 34.40 9.09L34.40 9.09Q35.14 9.85 35.35 10.07L35.35 10.07L35.88 10.20L35.88 10.68Q35.60 10.68 35.36 10.68Q35.11 10.68 34.79 10.71L34.79 10.71L33.71 10.82L32.07 8.91L30.41 6.98L30.41 7.94Q30.41 8.35 30.42 8.72Q30.43 9.08 30.48 9.53Q30.53 9.98 30.55 10.04L30.55 10.04L31.30 10.20L31.30 10.68L29.60 10.64L27.88 10.68L27.88 10.20L28.63 10.04L28.70 9.39Q28.73 9.09 28.75 8.70Q28.77 8.32 28.77 7.94L28.77 7.94L28.77 3.42L28.77 3.22L28.77 3.05L28.77 2.91Q28.77 2.67 28.76 2.43Q28.75 2.19 28.71 1.99L28.71 1.99L28.64 1.22ZM36.89 1.12L36.89 1.12Q36.89 0.73 37.17 0.44Q37.46 0.15 37.85 0.15L37.85 0.15Q38.25 0.15 38.53 0.44Q38.82 0.73 38.82 1.12L38.82 1.12Q38.82 1.53 38.53 1.81Q38.25 2.10 37.85 2.10L37.85 2.10Q37.46 2.10 37.17 1.81Q36.89 1.53 36.89 1.12ZM38.68 5.09L38.68 7.94Q38.68 8.35 38.69 8.72Q38.70 9.08 38.75 9.53Q38.79 9.98 38.82 10.04L38.82 10.04L39.57 10.20L39.57 10.68L37.85 10.64L36.14 10.68L36.14 10.20L36.89 10.04L36.96 9.39Q36.98 9.09 37.01 8.70Q37.03 8.32 37.03 7.94L37.03 7.94L37.03 6.41L37.03 6.21L37.03 6.03L37.03 5.89Q37.03 5.35 36.98 4.98L36.98 4.98Q36.98 4.72 36.96 4.52Q36.94 4.31 36.90 4.21L36.90 4.21L36.02 4.04L36.02 3.55Q36.34 3.51 36.61 3.49Q36.88 3.46 37.10 3.41L37.10 3.41L38.20 3.17L38.81 3.17L38.70 4.22L38.68 5.09ZM47.14 7.03L47.14 7.03Q47.14 8.75 46.06 9.79Q44.99 10.84 43.22 10.84L43.22 10.84Q41.46 10.84 40.39 9.79Q39.32 8.75 39.32 7.03L39.32 7.03Q39.32 5.33 40.40 4.27Q41.48 3.22 43.22 3.22L43.22 3.22Q44.99 3.22 46.06 4.27Q47.14 5.31 47.14 7.03ZM45.40 7.03L45.40 7.03Q45.40 5.71 44.81 4.90Q44.22 4.09 43.22 4.09L43.22 4.09Q42.23 4.09 41.64 4.89Q41.06 5.70 41.06 7.03L41.06 7.03Q41.06 8.33 41.65 9.15Q42.24 9.97 43.22 9.97L43.22 9.97Q44.19 9.97 44.79 9.17Q45.40 8.36 45.40 7.03Z"></path></g><!----><g data-v-423bf9ae="" id="7cf583c6-f088-4087-b47a-0db36a9fedb9" transform="matrix(1.0000000847710504,0,0,1.0000000847710504,-5.150005760192855,-4.000008053250106)" stroke="none" fill="white"><path d="M91.3 18.7L48.5 5.4 47.1 5l-1.3.5-37.2 15-2.5 1v2.7l-.3 53.2v3l2.8.9 42.9 13.3 1.4.4 1.3-.5 37.2-15 2.5-1v-2.7l.2-53.1v-3l-2.8-1zM53.4 37.9l2-.8-2 2v-1.2zm0 4.1l6.8-6.8 2-.8-8.7 8.7-.1-1.1zm0 4l13.5-13.5 2-.8-15.5 15.5V46zm0 4.1l20.3-20.3 2-.8-22.3 22.2v-1.1zm0 4l27-27.1 2-.8-29 29v-1.1zm-.1 4l33.8-33.8 2-.8-35.8 35.8v-1.2zm-.1 28.3l36.3-36.3v1.2L53.2 87.6v-1.2zm.1-2.9v-1.2L89.6 46v1.2L53.3 83.5zm0-4v-1.2L89.6 42v1.2L53.3 79.5zm0-4v-1.2L89.6 38v1.2L53.3 75.5zm0-4.1v-1.2l36.3-36.3v1.2L53.3 71.4zm0-4v-1.2l36.3-36.3v1.2L53.3 67.4zm0-4v-1.2l36.3-36.3v1.2L53.3 63.4zM13 24.2l34.3-13.9 39.8 12.4-34.2 13.8L13 24.2zm41 65.5l35.6-35.6v1.2L56 88.9l-2 .8zM83 78l-2 .8 8.5-8.5v1.2L83 78zm6.5-3.7v1l-1.8.7 1.8-1.7zm-13.3 6.4l-2 .8 15.3-15.3v1.2L76.2 80.7zm-6.7 2.7l-2 .8 22-22v1.2l-20 20zm-6.8 2.8l-2 .8 28.8-28.8v1.2L62.7 86.2z"></path></g><!----></svg>