<svg data-v-423bf9ae="" xmlns="http://www.w3.org/2000/svg" viewBox="0 0 372 90" class="iconLeft"><!----><defs data-v-423bf9ae=""><linearGradient data-v-423bf9ae="" gradientTransform="rotate(25)" id="b8f5951a-5b39-4391-9308-a092eaae34f5" x1="0%" y1="0%" x2="100%" y2="0%"><stop data-v-423bf9ae="" offset="0%" style="stop-color: rgb(65, 226, 150); stop-opacity: 1;"></stop><stop data-v-423bf9ae="" offset="100%" style="stop-color: rgb(0, 196, 238); stop-opacity: 1;"></stop></linearGradient></defs><!----><g data-v-423bf9ae="" id="d8522269-ad82-4875-a0a9-ee4a761f8958" fill="#ffffff" transform="matrix(5.714285714285714,0,0,5.714285714285714,98.28951750057084,-4.542855671473916)"><path d="M6.76 8.58C7.07 8.47 7.34 8.34 7.56 8.19C7.78 8.04 7.97 7.88 8.12 7.69C8.26 7.50 8.39 7.29 8.46 7.07C8.53 6.85 8.55 6.62 8.55 6.38C8.55 5.96 8.48 5.61 8.34 5.28C8.20 4.94 7.99 4.66 7.69 4.42C7.39 4.19 7 4.00 6.52 3.88C6.05 3.75 5.49 3.70 4.83 3.70L1.34 3.70L0.28 3.70L0.28 4.52C0.28 4.76 0.39 4.90 0.63 4.96C0.64 4.96 0.67 4.97 0.71 4.97C0.76 4.97 0.83 5.00 0.92 5.01C1.02 5.03 1.18 5.05 1.34 5.08L1.34 12.43C1.18 12.46 1.02 12.49 0.92 12.50C0.83 12.52 0.76 12.54 0.71 12.54C0.67 12.54 0.64 12.56 0.63 12.56C0.39 12.61 0.28 12.75 0.28 12.99L0.28 13.82L1.34 13.82L5.17 13.82C5.75 13.82 6.27 13.75 6.73 13.59C7.20 13.44 7.57 13.24 7.88 12.98C8.19 12.71 8.43 12.39 8.60 12.03C8.76 11.66 8.85 11.27 8.85 10.84C8.85 9.65 8.15 8.89 6.76 8.58ZM3.22 5.15L4.83 5.15C5.46 5.15 5.94 5.26 6.23 5.49C6.52 5.71 6.68 6.08 6.68 6.61C6.68 7.11 6.52 7.49 6.19 7.73C5.85 7.97 5.38 8.08 4.73 8.08L3.22 8.08ZM6.89 11.40C6.83 11.58 6.72 11.75 6.58 11.89C6.44 12.03 6.26 12.14 6.02 12.22C5.78 12.31 5.49 12.35 5.14 12.35L3.22 12.35L3.22 9.38L5.12 9.38C5.46 9.38 5.74 9.41 5.98 9.48C6.22 9.55 6.40 9.63 6.55 9.76C6.71 9.88 6.80 10.04 6.87 10.21C6.94 10.39 6.99 10.57 6.99 10.79C6.99 11.00 6.96 11.21 6.89 11.40ZM12.80 12.56C12.78 12.56 12.75 12.56 12.71 12.54C12.67 12.53 12.60 12.52 12.50 12.50C12.40 12.49 12.25 12.46 12.08 12.43L12.08 3.42L10.36 3.42L9.30 3.42L9.30 4.24C9.30 4.48 9.41 4.62 9.65 4.68C9.66 4.68 9.69 4.69 9.73 4.69C9.77 4.69 9.84 4.72 9.94 4.73C10.04 4.75 10.19 4.77 10.36 4.80L10.36 12.43C10.19 12.46 10.04 12.49 9.94 12.50C9.84 12.52 9.77 12.53 9.73 12.54C9.69 12.56 9.66 12.56 9.65 12.56C9.41 12.61 9.30 12.75 9.30 12.99L9.30 13.82L10.36 13.82L12.08 13.82L13.15 13.82L13.15 12.99C13.15 12.75 13.03 12.61 12.80 12.56ZM17.16 6.52C16.63 6.52 16.13 6.62 15.69 6.79C15.26 6.96 14.88 7.20 14.57 7.52C14.27 7.84 14.01 8.22 13.85 8.68C13.68 9.14 13.59 9.65 13.59 10.21C13.59 10.78 13.68 11.28 13.85 11.75C14.01 12.21 14.27 12.60 14.57 12.92C14.88 13.24 15.26 13.50 15.69 13.66C16.13 13.83 16.63 13.92 17.16 13.92C17.70 13.92 18.19 13.83 18.62 13.66C19.05 13.50 19.43 13.24 19.74 12.92C20.05 12.60 20.27 12.21 20.44 11.75C20.61 11.28 20.69 10.78 20.69 10.21C20.69 9.65 20.61 9.14 20.44 8.68C20.27 8.22 20.05 7.84 19.74 7.52C19.43 7.20 19.05 6.96 18.62 6.79C18.19 6.62 17.70 6.52 17.16 6.52ZM17.16 12.59C16.56 12.59 16.11 12.39 15.82 11.98C15.53 11.58 15.37 11.00 15.37 10.23C15.37 9.46 15.53 8.86 15.82 8.46C16.11 8.05 16.56 7.84 17.16 7.84C17.77 7.84 18.20 8.05 18.48 8.46C18.76 8.86 18.91 9.45 18.91 10.22C18.91 10.99 18.76 11.58 18.48 11.98C18.20 12.39 17.77 12.59 17.16 12.59ZM26.94 12.11C26.87 12.00 26.75 11.96 26.61 11.96C26.50 11.96 26.42 11.98 26.33 12.05C26.25 12.12 26.14 12.19 26.03 12.28C25.91 12.36 25.76 12.43 25.59 12.50C25.42 12.57 25.20 12.60 24.92 12.60C24.64 12.60 24.40 12.54 24.18 12.45C23.95 12.33 23.77 12.18 23.62 11.98C23.46 11.77 23.35 11.52 23.27 11.23C23.18 10.93 23.14 10.58 23.14 10.21C23.14 9.84 23.18 9.52 23.25 9.23C23.32 8.93 23.45 8.68 23.60 8.47C23.76 8.26 23.94 8.12 24.16 8.01C24.39 7.90 24.65 7.84 24.96 7.84C25.20 7.84 25.52 7.88 25.89 7.98C25.94 8.54 25.98 8.88 26.00 8.99C26.04 9.16 26.14 9.25 26.32 9.25L26.89 9.25L27.06 9.25L27.12 9.25L27.13 7.04C26.21 6.69 25.45 6.52 24.86 6.52C24.30 6.52 23.80 6.62 23.37 6.80C22.93 6.99 22.57 7.24 22.27 7.57C21.98 7.91 21.76 8.30 21.60 8.75C21.45 9.20 21.38 9.67 21.38 10.21C21.38 10.79 21.46 11.33 21.63 11.79C21.80 12.25 22.04 12.63 22.33 12.95C22.62 13.27 22.96 13.51 23.35 13.68C23.74 13.85 24.15 13.92 24.60 13.92C24.85 13.92 25.12 13.90 25.37 13.86C25.62 13.82 25.87 13.76 26.11 13.68C26.35 13.58 26.59 13.47 26.81 13.31C27.03 13.16 27.23 12.96 27.43 12.74ZM35.48 12.56C35.45 12.56 35.39 12.54 35.34 12.53C35.28 12.52 35.18 12.52 35.04 12.50C34.90 12.49 34.75 12.46 34.59 12.43L33.15 10.33C33.08 10.22 33.00 10.12 32.93 10.02C32.86 9.93 32.77 9.86 32.68 9.79C32.77 9.73 32.86 9.66 32.94 9.58C33.03 9.49 33.11 9.39 33.19 9.30L34.26 8.01C34.40 7.99 34.51 7.97 34.64 7.95C34.76 7.94 34.86 7.92 34.92 7.91C34.97 7.90 35 7.90 35.03 7.90C35.27 7.84 35.38 7.70 35.38 7.46L35.38 6.64L35.38 6.64L33.84 6.64C33.80 6.64 33.75 6.64 33.70 6.65L33.70 6.64L31.98 6.64L31.98 7.46C31.98 7.70 32.09 7.84 32.33 7.90C32.34 7.90 32.38 7.91 32.45 7.92L31.46 9.14C31.39 9.23 31.32 9.30 31.25 9.32C31.18 9.35 31.08 9.37 30.97 9.37L30.65 9.37L30.65 3.42L28.92 3.42L27.86 3.42L27.86 4.24C27.86 4.48 27.97 4.62 28.21 4.68C28.22 4.68 28.25 4.69 28.29 4.69C28.34 4.69 28.41 4.72 28.50 4.73C28.60 4.75 28.76 4.77 28.92 4.80L28.92 12.43C28.76 12.46 28.60 12.49 28.50 12.50C28.41 12.52 28.34 12.54 28.29 12.54C28.25 12.54 28.22 12.56 28.21 12.56C27.97 12.61 27.86 12.75 27.86 12.99L27.86 13.82L28.92 13.82L30.65 13.82L31.71 13.82L31.71 12.99C31.71 12.75 31.60 12.61 31.36 12.56C31.35 12.56 31.32 12.54 31.28 12.54C31.23 12.53 31.16 12.52 31.07 12.50C30.97 12.49 30.81 12.46 30.65 12.43L30.65 10.53L31.04 10.53C31.18 10.53 31.29 10.54 31.36 10.57C31.43 10.60 31.50 10.67 31.57 10.78L33.39 13.51C33.46 13.62 33.54 13.71 33.64 13.75C33.74 13.79 33.85 13.82 33.99 13.82L34.76 13.82L35.55 13.82L35.83 13.82L35.83 12.99C35.83 12.75 35.71 12.61 35.48 12.56ZM39.83 12.56C39.82 12.56 39.79 12.54 39.75 12.54C39.70 12.54 39.63 12.52 39.54 12.50C39.44 12.49 39.28 12.46 39.12 12.43L39.12 6.64L37.39 6.64L36.33 6.64L36.33 7.46C36.33 7.70 36.44 7.84 36.68 7.90C36.69 7.90 36.72 7.91 36.76 7.91C36.81 7.91 36.88 7.94 36.97 7.95C37.07 7.97 37.23 7.99 37.39 8.02L37.39 12.43C37.23 12.46 37.07 12.49 36.97 12.50C36.88 12.52 36.81 12.53 36.76 12.54C36.72 12.54 36.69 12.56 36.68 12.56C36.44 12.61 36.33 12.75 36.33 12.99L36.33 13.82L37.39 13.82L39.12 13.82L40.18 13.82L40.18 12.99C40.18 12.75 40.07 12.61 39.83 12.56ZM39.38 4.54C39.38 4.38 39.34 4.24 39.28 4.10C39.23 3.96 39.14 3.85 39.05 3.75C38.95 3.65 38.84 3.58 38.70 3.53C38.56 3.47 38.42 3.43 38.26 3.43C38.11 3.43 37.97 3.47 37.83 3.53C37.69 3.58 37.59 3.65 37.49 3.75C37.39 3.85 37.31 3.96 37.25 4.10C37.20 4.24 37.17 4.38 37.17 4.54C37.17 4.69 37.20 4.83 37.25 4.96C37.31 5.08 37.39 5.21 37.49 5.31C37.59 5.40 37.69 5.49 37.83 5.54C37.97 5.60 38.11 5.63 38.26 5.63C38.42 5.63 38.56 5.60 38.70 5.54C38.84 5.49 38.95 5.40 39.05 5.31C39.14 5.21 39.23 5.08 39.28 4.96C39.34 4.83 39.38 4.69 39.38 4.54ZM44.20 6.52C43.67 6.52 43.16 6.62 42.73 6.79C42.29 6.96 41.92 7.20 41.61 7.52C41.30 7.84 41.05 8.22 40.88 8.68C40.71 9.14 40.63 9.65 40.63 10.21C40.63 10.78 40.71 11.28 40.88 11.75C41.05 12.21 41.30 12.60 41.61 12.92C41.92 13.24 42.29 13.50 42.73 13.66C43.16 13.83 43.67 13.92 44.20 13.92C44.73 13.92 45.22 13.83 45.65 13.66C46.09 13.50 46.47 13.24 46.77 12.92C47.08 12.60 47.31 12.21 47.47 11.75C47.64 11.28 47.73 10.78 47.73 10.21C47.73 9.65 47.64 9.14 47.47 8.68C47.31 8.22 47.08 7.84 46.77 7.52C46.47 7.20 46.09 6.96 45.65 6.79C45.22 6.62 44.73 6.52 44.20 6.52ZM44.20 12.59C43.60 12.59 43.15 12.39 42.85 11.98C42.56 11.58 42.41 11.00 42.41 10.23C42.41 9.46 42.56 8.86 42.85 8.46C43.15 8.05 43.60 7.84 44.20 7.84C44.80 7.84 45.23 8.05 45.51 8.46C45.79 8.86 45.95 9.45 45.95 10.22C45.95 10.99 45.79 11.58 45.51 11.98C45.23 12.39 44.80 12.59 44.20 12.59Z"></path></g><!----><g data-v-423bf9ae="" id="9747c536-1fd0-4d22-a3b2-12e5b343ee8e" transform="matrix(1.4516129032258065,0,0,1.4516129032258065,-5.96888969790551,-1.4516129032258078)" stroke="none" fill="#ffffff"><path d="M19.271 39.349l12.228 7.059V32.291l-12.228-7.059zM32 17.302l-12.229 7.063 12.228 7.06 12.23-7.059zM32.499 46.409l12.23-7.06V25.233l-12.23 7.058zM28.346 7.625a3.316 3.316 0 003.313-3.313A3.318 3.318 0 0028.346 1a3.316 3.316 0 00-3.312 3.312 3.316 3.316 0 003.312 3.313zM32.609 3.823c.019.163.049.321.049.489 0 .175-.031.342-.052.511 14.327.241 25.911 11.964 25.911 26.348a.5.5 0 001 0c.001-14.935-12.03-27.105-26.908-27.348zM35.648 56.376A3.313 3.313 0 0035.65 63c1.825 0 3.311-1.486 3.311-3.313s-1.486-3.311-3.313-3.311zM5.482 32.83a.5.5 0 00-1 0c0 14.934 12.031 27.104 26.909 27.346-.019-.162-.049-.321-.049-.488 0-.175.031-.342.052-.512C17.065 58.935 5.482 47.213 5.482 32.83z"></path></g><!----></svg>